# xmcd
#
# Track frame offsets:
#	183
#	14325
#	31968
#	50573
#	62623
#	88180
#	112705
#	132195
#	150473
#	165000
#	184860
#
# Disc length: 2916
#
# Revision: 1
# Processed by: cddbd v1.5.1PL0 Copyright (c) Steve Scherf et al.
# Submitted via: CDex 1.50
# Normalized: r0:DSETVAR1,TDELIM( - )
#
DISCID=7b0b620b
DTITLE=Various Artist - Respect. Essential Argo - Cadet Grooves Vol. 5
DYEAR=1993
DGENRE=Jazz
TTITLE0=Rotary Connection - Respect
TTITLE1=Phil Upchurch - Cross town traffic
TTITLE2=Ramsey Lewis Trio - Bold and black
TTITLE3=Terry Callier - Look at me now
TTITLE4=Dorothy Ashby - The moving finger
TTITLE5=Etta James - All the way down
TTITLE6=The Soulful Strings - Burning spear
TTITLE7=Daniel Salinas - Baiao
TTITLE8=Minnie Ripperton - Les fleurs
TTITLE9=American Gipsy - Golden ring
TTITLE10=Jack McDuff - The city bump
EXTD=YEAR: 1993
EXTT0=
EXTT1=
EXTT2=
EXTT3=
EXTT4=
EXTT5=
EXTT6=
EXTT7=
EXTT8=
EXTT9=
EXTT10=
PLAYORDER=
